<?xml version="1.0" encoding="UTF-8"?>
<svg id="Calque_4" data-name="Calque 4" xmlns="http://www.w3.org/2000/svg" xmlns:xlink="http://www.w3.org/1999/xlink" viewBox="0 0 1237.97 1199.91">
  <defs>
    <style>
      .cls-1 {
        isolation: isolate;
      }

      .cls-2 {
        fill: url(#Dégradé_sans_nom_61);
      }

      .cls-3 {
        fill: url(#Dégradé_sans_nom_15);
      }

      .cls-4 {
        fill: #750787;
      }

      .cls-5 {
        fill: url(#Dégradé_sans_nom_15-2);
      }

      .cls-6 {
        fill: url(#Dégradé_sans_nom_116);
      }
    </style>
    <linearGradient id="Dégradé_sans_nom_61" data-name="Dégradé sans nom 61" x1="625.39" y1="21.66" x2="625.39" y2="1166.11" gradientUnits="userSpaceOnUse">
      <stop offset=".21" stop-color="#003aff"/>
      <stop offset=".3" stop-color="#008026"/>
      <stop offset=".41" stop-color="#fc0"/>
      <stop offset=".52" stop-color="#ff7e00"/>
      <stop offset=".62" stop-color="#e40303"/>
      <stop offset=".74" stop-color="#750787"/>
    </linearGradient>
    <linearGradient id="Dégradé_sans_nom_15" data-name="Dégradé sans nom 15" x1="1073.7" y1="1058.88" x2="1073.7" y2="1020.2" gradientUnits="userSpaceOnUse">
      <stop offset="0" stop-color="#fc0"/>
      <stop offset=".04" stop-color="#f6bf08"/>
      <stop offset=".3" stop-color="#c87e34"/>
      <stop offset=".53" stop-color="#a44b58"/>
      <stop offset=".74" stop-color="#8a2671"/>
      <stop offset=".9" stop-color="#7a0f81"/>
      <stop offset="1" stop-color="#750787"/>
    </linearGradient>
    <linearGradient id="Dégradé_sans_nom_15-2" data-name="Dégradé sans nom 15" x1="1071.97" y1="1076.71" x2="1071.97" y2="1002.57" xlink:href="#Dégradé_sans_nom_15"/>
    <linearGradient id="Dégradé_sans_nom_116" data-name="Dégradé sans nom 116" x1="613.94" y1="25" x2="613.94" y2="1175" gradientUnits="userSpaceOnUse">
      <stop offset="0" stop-color="#000"/>
      <stop offset=".04" stop-color="#251507"/>
      <stop offset=".09" stop-color="#45280e"/>
      <stop offset=".12" stop-color="#583312"/>
      <stop offset=".15" stop-color="#603814"/>
      <stop offset=".3" stop-color="#fdafc7"/>
      <stop offset=".34" stop-color="#fdb7cd"/>
      <stop offset=".4" stop-color="#fdd0de"/>
      <stop offset=".49" stop-color="#fef7f9"/>
      <stop offset=".5" stop-color="#fff"/>
      <stop offset=".51" stop-color="#f4fbfc"/>
      <stop offset=".57" stop-color="#bdebf1"/>
      <stop offset=".63" stop-color="#96dfe9"/>
      <stop offset=".67" stop-color="#7dd7e4"/>
      <stop offset=".7" stop-color="#75d5e3"/>
      <stop offset=".77" stop-color="#766ec7"/>
      <stop offset=".85" stop-color="#7902aa"/>
      <stop offset=".85" stop-color="#7f0ba2"/>
      <stop offset=".87" stop-color="#a04177"/>
      <stop offset=".9" stop-color="#bd6f53"/>
      <stop offset=".92" stop-color="#d59535"/>
      <stop offset=".94" stop-color="#e7b21d"/>
      <stop offset=".96" stop-color="#f4c70d"/>
      <stop offset=".98" stop-color="#fcd303"/>
      <stop offset="1" stop-color="#ffd800"/>
    </linearGradient>
  </defs>
  <g>
    <g>
      <path class="cls-4" d="M677.75,206.52c-13.06-1.81-26.23-2.8-40.29-4.27v360.62h-40.55v-282.86h-84.29v309.49c-.91.18-1.83.35-2.74.53-45.61-104.53-91.21-209.05-137.36-314.82-2.43,1.87-3.93,2.87-5.27,4.07-30.15,27.2-57.82,56.67-81.94,89.38-53.96,73.2-85.45,154.07-79.37,246.21,6.79,102.91,51.69,189.06,121.52,263.22,2.76,2.93,8.07,4.83,12.21,4.87,38.01.37,76.03.22,114.05.2,2.03,0,4.05-.17,7.67-.33-3.19-2.99-5.12-4.85-7.11-6.64-35.6-32.05-67.16-67.61-92.48-108.38-42.78-68.89-66.35-142.51-53.64-224.67,5.24-33.85,16.86-65.45,34.72-96.22,42.49,86.5,84.4,171.88,126.36,257.24,41.89,85.24,83.82,170.47,125.73,255.71.77-.17,1.54-.33,2.31-.5v-309.48h41.38v232.68h102.04v-232.1h201.88c-12.52,86.83-54.27,160.53-106.19,231.1,39.28,0,76.64.13,113.98-.28,2.67-.03,6.44-3.51,7.78-6.31,26.91-56.43,54.06-112.78,71.09-173.28,11.63-41.32,19.47-83.15,15.06-126.29-7.15-69.95-30.91-134.55-72.18-190.83-73.04-99.6-170.78-160.9-294.4-178.09ZM738.44,562.95v-243.73c49.51,13.57,93.66,35.53,130.77,70.66,49.62,46.97,75.06,105.78,84.98,173.06h-215.75Z"/>
      <g class="cls-1">
        <path class="cls-2" d="M677.75,206.52c-13.06-1.81-26.23-2.8-40.29-4.27v360.62h-40.55v-282.86h-84.29v309.49c-.91.18-1.83.35-2.74.53-45.61-104.53-91.21-209.05-137.36-314.82-2.43,1.87-3.93,2.87-5.27,4.07-30.15,27.2-57.82,56.67-81.94,89.38-53.96,73.2-85.45,154.07-79.37,246.21,6.79,102.91,51.69,189.06,121.52,263.22,2.76,2.93,8.07,4.83,12.21,4.87,38.01.37,76.03.22,114.05.2,2.03,0,4.05-.17,7.67-.33-3.19-2.99-5.12-4.85-7.11-6.64-35.6-32.05-67.16-67.61-92.48-108.38-42.78-68.89-66.35-142.51-53.64-224.67,5.24-33.85,16.86-65.45,34.72-96.22,42.49,86.5,84.4,171.88,126.36,257.24,41.89,85.24,83.82,170.47,125.73,255.71.77-.17,1.54-.33,2.31-.5v-309.48h41.38v232.68h102.04v-232.1h201.88c-12.52,86.83-54.27,160.53-106.19,231.1,39.28,0,76.64.13,113.98-.28,2.67-.03,6.44-3.51,7.78-6.31,26.91-56.43,54.06-112.78,71.09-173.28,11.63-41.32,19.47-83.15,15.06-126.29-7.15-69.95-30.91-134.55-72.18-190.83-73.04-99.6-170.78-160.9-294.4-178.09ZM738.44,562.95v-243.73c49.51,13.57,93.66,35.53,130.77,70.66,49.62,46.97,75.06,105.78,84.98,173.06h-215.75Z"/>
      </g>
    </g>
    <path class="cls-3" d="M1080.28,1040.45v-.61c4.26-1.22,7.7-4.26,7.7-8.71,0-9.73-9.73-10.94-16.41-10.94-5.87,0-10.33.59-13.77,1.2v37.48h8.1v-15.19c7.7,0,10.94,0,12.35,5.87,1.02,4.67,1.83,7.9,2.84,9.32h8.51c-.81-1.42-1.62-3.65-2.84-9.32-1.01-4.85-2.84-7.9-6.48-9.11ZM1066.11,1037.81v-11.13c.81-.21,2.42-.41,4.85-.41,5.87,0,8.31,2.42,8.31,5.87,0,5.67-6.9,5.67-13.16,5.67Z"/>
    <path class="cls-5" d="M1071.98,1002.57c-20.67,0-37.69,15.8-37.69,36.87s16.61,37.28,37.69,37.28,37.67-16.41,37.67-37.28-16.41-36.87-37.67-36.87ZM1071.98,1069.42c-15.19,0-28.98-11.96-28.98-29.77,0-16.61,12.37-29.99,28.77-29.99s28.98,13.38,28.98,29.99-12.16,29.77-28.77,29.77Z"/>
  </g>
  <g>
    <path class="cls-4" d="M613.94,25C296.37,25,38.94,282.44,38.94,600s257.44,575,575,575,575-257.44,575-575S931.5,25,613.94,25ZM949.47,935.53c-43.59,43.59-94.33,77.8-150.84,101.7-58.49,24.74-120.62,37.28-184.69,37.28s-126.21-12.54-184.69-37.28c-56.5-23.9-107.25-58.12-150.84-101.7-43.59-43.59-77.8-94.33-101.7-150.84-24.74-58.49-37.28-120.63-37.28-184.69s12.54-126.21,37.28-184.69c23.9-56.5,58.12-107.25,101.7-150.84,43.59-43.59,94.33-77.8,150.84-101.7,58.49-24.74,120.63-37.28,184.69-37.28s126.21,12.54,184.69,37.28c56.5,23.9,107.25,58.12,150.84,101.7,43.59,43.59,77.8,94.33,101.7,150.84,24.74,58.49,37.28,120.62,37.28,184.69s-12.54,126.21-37.28,184.69c-23.9,56.5-58.12,107.25-101.7,150.84Z"/>
    <g class="cls-1">
      <path class="cls-6" d="M613.94,25C296.37,25,38.94,282.44,38.94,600s257.44,575,575,575,575-257.44,575-575S931.5,25,613.94,25ZM949.47,935.53c-43.59,43.59-94.33,77.8-150.84,101.7-58.49,24.74-120.62,37.28-184.69,37.28s-126.21-12.54-184.69-37.28c-56.5-23.9-107.25-58.12-150.84-101.7-43.59-43.59-77.8-94.33-101.7-150.84-24.74-58.49-37.28-120.63-37.28-184.69s12.54-126.21,37.28-184.69c23.9-56.5,58.12-107.25,101.7-150.84,43.59-43.59,94.33-77.8,150.84-101.7,58.49-24.74,120.63-37.28,184.69-37.28s126.21,12.54,184.69,37.28c56.5,23.9,107.25,58.12,150.84,101.7,43.59,43.59,77.8,94.33,101.7,150.84,24.74,58.49,37.28,120.62,37.28,184.69s-12.54,126.21-37.28,184.69c-23.9,56.5-58.12,107.25-101.7,150.84Z"/>
    </g>
  </g>
</svg>